<?xml version="1.0" standalone="no"?>
<!DOCTYPE svg PUBLIC "-//W3C//DTD SVG 20010904//EN"
 "http://www.w3.org/TR/2001/REC-SVG-20010904/DTD/svg10.dtd">
<svg version="1.0" xmlns="http://www.w3.org/2000/svg"
 width="224.000000pt" height="225.000000pt" viewBox="0 0 224.000000 225.000000"
 preserveAspectRatio="xMidYMid meet">
<metadata>
Created by potrace 1.10, written by Peter Selinger 2001-2011
</metadata>
<g transform="translate(0.000000,225.000000) scale(0.050000,-0.050000)"
fill="#000000" stroke="none">
<path d="M170 2866 c90 -24 90 -25 90 -589 l0 -539 -65 -28 c-82 -36 692 -43
905 -9 357 58 486 467 186 592 l-73 30 62 31 c119 57 163 254 84 382 -74 123
-128 133 -709 137 -286 2 -502 -1 -480 -7z m786 -237 c134 -94 30 -224 -186
-231 l-140 -5 -6 133 -6 134 147 0 c100 0 160 -10 191 -31z m24 -459 c40 -36
54 -138 25 -182 -31 -47 -108 -68 -241 -68 l-140 0 0 152 0 153 158 -9 c115
-7 168 -19 198 -46z"/>
<path d="M1485 2857 c40 -15 118 -114 285 -363 l230 -343 0 -170 c-1 -215 -11
-254 -77 -278 -38 -14 41 -20 277 -20 244 0 316 5 275 20 l-55 20 0 224 0 223
223 333 c122 183 242 343 265 354 31 15 -33 20 -238 20 -154 0 -269 -5 -255
-10 45 -19 25 -75 -93 -255 l-117 -177 -109 167 c-135 208 -144 231 -100 257
24 14 -58 19 -266 19 -225 -1 -286 -6 -245 -21z"/>
<path d="M3031 2852 c36 -27 39 -59 44 -414 5 -440 16 -490 134 -608 257 -257
874 -207 1045 85 56 95 56 97 62 510 l7 415 63 18 c45 13 -29 18 -256 18 -176
0 -302 -5 -280 -10 86 -22 90 -37 90 -373 0 -178 -10 -357 -21 -399 -43 -154
-258 -208 -384 -96 l-65 59 0 395 0 396 50 14 c28 8 -80 15 -239 16 -254 2
-284 -1 -250 -26z"/>
</g>
</svg>
